# xmcd
#
# Track frame offsets:
#	150
#	12570
#	23438
#	32318
#	41221
#	53814
#	64757
#	76367
#	89972
#	99467
#	112900
#
# Disc length: 1650 seconds
#
# Revision: 1
# Processed by: cddbd v1.5.2PL0 Copyright (c) Steve Scherf et al.
# Submitted via: audiograbber 1.83.01
#
DISCID=8406700b
DTITLE=Walterm Brennan - Talkin' From The Heart
DYEAR=1963
DGENRE=Country
TTITLE0=Detroit City
TTITLE1=Scarlet Ribbons
TTITLE2=Abilene
TTITLE3=Waiting For A Train
TTITLE4=Old Courthouse
TTITLE5=Kee A-Movin' Old Man
TTITLE6=Moon Wanderer
TTITLE7=Tennessee Stud
TTITLE8=Cotton-Eyed Joe
TTITLE9=Don't Go Near The Indians
TTITLE10=The Sound Of Silence
EXTD=
EXTT0=
EXTT1=
EXTT2=
EXTT3=
EXTT4=
EXTT5=
EXTT6=
EXTT7=
EXTT8=
EXTT9=
EXTT10=
PLAYORDER=
